<svg width="18" height="18" viewBox="0 0 18 18" fill="none" xmlns="http://www.w3.org/2000/svg">
  <path d="M9 1.5C9.49706 1.5 9.9 1.90294 9.9 2.4V10.7272L13.0912 7.53604C13.4426 7.18457 14.0125 7.18457 14.364 7.53604C14.7154 7.88751 14.7154 8.45736 14.364 8.80883L9.6364 13.5364C9.28492 13.8879 8.71508 13.8879 8.3636 13.5364L3.63604 8.80883C3.28457 8.45736 3.28457 7.88751 3.63604 7.53604C3.98751 7.18457 4.55736 7.18457 4.90883 7.53604L8.1 10.7272V2.4C8.1 1.90294 8.50294 1.5 9 1.5Z" fill="black"/>
  <path d="M2.4 14.7C2.4 14.2029 2.80294 13.8 3.3 13.8H14.7C15.1971 13.8 15.6 14.2029 15.6 14.7C15.6 15.1971 15.1971 15.6 14.7 15.6H3.3C2.80294 15.6 2.4 15.1971 2.4 14.7Z" fill="black"/>
</svg>
