<svg width="117" height="24" viewBox="0 0 117 24" fill="none" xmlns="http://www.w3.org/2000/svg">
<g clip-path="url(#clip0_44_33163)">
<path d="M13.4543 15.8979L13.3195 16.0705C12.7631 16.7863 12.1581 17.3119 11.5217 17.634C10.8866 17.9554 10.2234 18.1182 9.55112 18.1182C8.67604 18.1182 7.87604 17.9575 7.17358 17.6417C6.46832 17.3252 5.85428 16.8838 5.34832 16.3301C4.84095 15.7758 4.44305 15.1077 4.16516 14.3442C3.88586 13.5786 3.74411 12.7273 3.74411 11.8143C3.74411 10.9687 3.88516 10.1687 4.16376 9.43681C4.44165 8.70628 4.83954 8.05856 5.34691 7.51189C5.85288 6.96663 6.46621 6.53365 7.17147 6.22488C7.87533 5.91611 8.67604 5.75961 9.55112 5.75961C10.1322 5.75961 10.7188 5.87119 11.295 6.09224C11.8641 6.31049 12.4662 6.75891 13.0845 7.42558L13.2234 7.57505L16.022 5.51891L15.8592 5.33154C14.9617 4.29856 13.9764 3.5554 12.9301 3.12172C11.8887 2.69014 10.7434 2.47119 9.52656 2.47119C8.14691 2.47119 6.862 2.69786 5.70621 3.14488C4.54832 3.5933 3.53568 4.24102 2.69709 5.07119C1.85849 5.90137 1.19393 6.91751 0.720947 8.09154C0.248667 9.26417 0.00866699 10.5842 0.00866699 12.0144C0.00866699 13.4445 0.248667 14.7042 0.720947 15.8515C1.19393 17.001 1.85849 17.9996 2.69709 18.8214C3.53498 19.6431 4.54761 20.2866 5.70551 20.7344C6.8613 21.1814 8.14691 21.408 9.52586 21.408C10.9048 21.408 12.102 21.1512 13.2683 20.6438C14.4438 20.1329 15.4529 19.3056 16.2683 18.1842L16.4045 17.9975L13.455 15.8986L13.4543 15.8979Z" fill="#212528"/>
<path d="M17.7296 14.1402C17.7296 13.0967 17.917 12.1493 18.2924 11.2981C18.6672 10.4469 19.1752 9.71916 19.8166 9.11495C20.4573 8.51074 21.2173 8.04407 22.0959 7.71425C22.9745 7.38442 23.9086 7.22021 24.8966 7.22021C25.8847 7.22021 26.8187 7.38513 27.6973 7.71425C28.5759 8.04337 29.3352 8.51074 29.9766 9.11495C30.6173 9.71916 31.1254 10.4469 31.5008 11.2981C31.8756 12.1493 32.0637 13.0967 32.0637 14.1402C32.0637 15.1837 31.8756 16.1311 31.5008 16.9823C31.1254 17.8335 30.6173 18.5613 29.9766 19.1655C29.3359 19.7697 28.5759 20.2364 27.6973 20.5662C26.8187 20.896 25.8847 21.0602 24.8966 21.0602C23.9086 21.0602 22.9745 20.8953 22.0959 20.5662C21.2173 20.2364 20.4573 19.7697 19.8166 19.1655C19.1759 18.5613 18.6679 17.8335 18.2924 16.9823C17.917 16.1311 17.7296 15.1837 17.7296 14.1402ZM21.0251 14.1402C21.0251 14.6532 21.1114 15.1472 21.2861 15.623C21.4601 16.0995 21.7163 16.5206 22.0552 16.8862C22.3935 17.2525 22.8012 17.5451 23.277 17.7648C23.7528 17.9844 24.2931 18.0946 24.8973 18.0946C25.5015 18.0946 26.0412 17.9851 26.5177 17.7648C26.9935 17.5451 27.4005 17.2525 27.7394 16.8862C28.0777 16.5199 28.3338 16.0995 28.5086 15.623C28.6826 15.1472 28.7696 14.6532 28.7696 14.1402C28.7696 13.6272 28.6826 13.1339 28.5086 12.6574C28.3345 12.1816 28.0784 11.7606 27.7394 11.3942C27.4005 11.0279 26.9935 10.7353 26.5177 10.5157C26.0412 10.296 25.5015 10.1865 24.8973 10.1865C24.2931 10.1865 23.7528 10.296 23.277 10.5157C22.8005 10.7353 22.3935 11.0286 22.0552 11.3942C21.7163 11.7606 21.4601 12.1816 21.2861 12.6574C21.1121 13.1339 21.0251 13.6279 21.0251 14.1402Z" fill="#212528"/>
<path d="M43.0517 18.9185H42.9696C42.4931 19.6694 41.8889 20.2139 41.1569 20.5522C40.4243 20.8904 39.6194 21.0602 38.7408 21.0602C38.1366 21.0602 37.5464 20.9781 36.9696 20.8132C36.3927 20.6483 35.8804 20.4013 35.432 20.0722C34.9829 19.7424 34.6222 19.3304 34.3471 18.8364C34.0727 18.3424 33.9352 17.7655 33.9352 17.1066C33.9352 16.3929 34.0629 15.7845 34.3197 15.2806C34.5759 14.7774 34.919 14.3564 35.3492 14.0174C35.7794 13.6792 36.2783 13.409 36.8461 13.2076C37.4131 13.0062 38.004 12.8553 38.6173 12.7543C39.2306 12.6539 39.8482 12.5894 40.4706 12.562C41.0931 12.5346 41.679 12.5206 42.2278 12.5206H43.0517V12.1634C43.0517 11.3395 42.7675 10.722 42.2004 10.3101C41.6327 9.89814 40.9099 9.69253 40.0313 9.69253C39.3352 9.69253 38.6861 9.81604 38.0818 10.0631C37.4776 10.3101 36.9562 10.6441 36.5169 11.0652L34.7871 9.33533C35.519 8.58516 36.3752 8.04481 37.3548 7.71498C38.3338 7.38516 39.3457 7.22095 40.3892 7.22095C41.3226 7.22095 42.1099 7.32621 42.7506 7.53674C43.3913 7.74726 43.9218 8.01744 44.3436 8.34656C44.7647 8.67639 45.0896 9.05603 45.3183 9.48621C45.5471 9.91639 45.712 10.3515 45.8124 10.7908C45.9127 11.2301 45.9724 11.656 45.9906 12.068C46.0089 12.4799 46.018 12.8413 46.018 13.1529V20.7318H43.0524V18.9192L43.0517 18.9185ZM42.8594 14.8273H42.1731C41.7155 14.8273 41.2025 14.8455 40.6355 14.882C40.0678 14.9192 39.5324 15.0055 39.0292 15.1431C38.5254 15.2806 38.1001 15.482 37.752 15.7473C37.404 16.0125 37.2306 16.3838 37.2306 16.8595C37.2306 17.1711 37.2994 17.4322 37.4362 17.642C37.5738 17.8525 37.752 18.0315 37.9717 18.1774C38.1913 18.3241 38.4383 18.4294 38.7134 18.4932C38.9878 18.5578 39.2629 18.5894 39.5373 18.5894C40.672 18.5894 41.5099 18.3192 42.0496 17.7795C42.5892 17.2399 42.8594 16.5024 42.8594 15.569V14.828V14.8273Z" fill="#212528"/>
<path d="M57.7896 11.5044C57.405 11.1016 57.0022 10.7816 56.5812 10.543C56.1601 10.3051 55.7299 10.1858 55.2906 10.1858C54.6864 10.1858 54.1461 10.2953 53.6703 10.5149C53.1938 10.7346 52.7868 11.0279 52.4485 11.3935C52.1096 11.7598 51.8535 12.1809 51.6794 12.6567C51.5054 13.1332 51.4184 13.6272 51.4184 14.1395C51.4184 14.6518 51.5054 15.1465 51.6794 15.6223C51.8535 16.0988 52.1096 16.5198 52.4485 16.8854C52.7868 17.2518 53.1945 17.5444 53.6703 17.764C54.1461 17.9837 54.6864 18.0939 55.2906 18.0939C55.8029 18.0939 56.2794 17.9886 56.7187 17.7781C57.158 17.5676 57.5327 17.2609 57.8443 16.8581L60.0408 19.2195C59.711 19.5486 59.3313 19.8328 58.9012 20.0707C58.471 20.3086 58.0359 20.5009 57.5966 20.6476C57.1573 20.7942 56.7363 20.8988 56.3335 20.9633C55.9306 21.0272 55.5826 21.0595 55.2899 21.0595C54.3012 21.0595 53.3678 20.8946 52.4892 20.5654C51.6106 20.2356 50.8506 19.769 50.2099 19.1647C49.5692 18.5605 49.0612 17.8328 48.6857 16.9816C48.3103 16.1304 48.1229 15.183 48.1229 14.1395C48.1229 13.096 48.3103 12.1486 48.6857 11.2974C49.0605 10.4461 49.5685 9.71843 50.2099 9.11422C50.8506 8.51001 51.6106 8.04334 52.4892 7.71352C53.3678 7.38369 54.3019 7.21948 55.2899 7.21948C56.132 7.21948 56.9791 7.38018 57.8303 7.70018C58.6815 8.02089 59.4275 8.52896 60.0682 9.2244L57.7889 11.5037L57.7896 11.5044Z" fill="#212528"/>
<path d="M65.4479 9.39035H65.5026C65.7588 8.84088 66.2121 8.34263 66.8619 7.89351C67.5118 7.44509 68.349 7.22053 69.3742 7.22053C70.2528 7.22053 70.9988 7.36719 71.6121 7.65983C72.2255 7.95316 72.7244 8.33702 73.109 8.81351C73.4935 9.29 73.7679 9.83877 73.9328 10.4612C74.0977 11.0837 74.1798 11.7335 74.1798 12.4107V20.7314H70.8844V14.0584C70.8844 13.6921 70.8662 13.2851 70.8297 12.8367C70.7925 12.3882 70.6963 11.9672 70.5412 11.5735C70.3855 11.1798 70.1433 10.8507 69.8135 10.5847C69.4837 10.3195 69.0353 10.1868 68.4683 10.1868C67.9012 10.1868 67.4563 10.2788 67.0816 10.4612C66.7061 10.6444 66.3953 10.8914 66.1483 11.2023C65.9012 11.5139 65.7223 11.8711 65.6128 12.2732C65.5026 12.676 65.4479 13.097 65.4479 13.5363V20.7307H62.1525V-0.0292969H65.4479V9.38965V9.39035Z" fill="#212528"/>
<path d="M78.4341 2.44074V20.7986H82.559V13.2365H90.5029V20.7986H94.653V2.44074H90.5281V9.64636H82.533V2.44074H78.4341Z" fill="url(#paint0_linear_44_33163)"/>
<path d="M112.524 24.0281C110.591 24.0281 108.687 22.9671 107.28 21.1123C106.994 21.1362 106.705 21.1488 106.418 21.1488C101.005 21.1488 96.6018 16.8625 96.6018 11.5944C96.6018 6.32635 101.005 2.04004 106.418 2.04004C111.831 2.04004 116.234 6.32635 116.234 11.5944C116.234 13.4211 115.703 15.1965 114.697 16.7292C113.781 18.1243 112.515 19.2618 111.019 20.0358C111.355 20.3565 111.951 20.7706 112.787 20.7706C113.623 20.7706 114.472 20.0625 114.48 20.0555L114.692 19.8751L114.853 20.1011L116.416 22.2948L116.295 22.445C116.243 22.5095 114.989 24.0288 112.524 24.0288V24.0281ZM106.367 5.56425C103.113 5.56425 100.465 8.29758 100.465 11.6576C100.465 15.0176 103.113 17.7509 106.367 17.7509C109.622 17.7509 112.27 15.0176 112.27 11.6576C112.27 8.29758 109.622 5.56425 106.367 5.56425Z" fill="url(#paint1_linear_44_33163)"/>
<path d="M114.646 20.2479C114.646 20.2479 113.742 21.0247 112.787 21.0247C111.612 21.0247 110.873 20.2893 110.601 19.9595C113.786 18.45 115.98 15.2717 115.98 11.5945C115.98 6.4584 111.699 2.29419 106.417 2.29419C101.136 2.29419 96.8545 6.4584 96.8545 11.5945C96.8545 16.7307 101.136 20.8949 106.417 20.8949C106.749 20.8949 107.076 20.8788 107.398 20.8465C108.615 22.5047 110.446 23.7742 112.523 23.7742C114.895 23.7742 116.097 22.2844 116.097 22.2844L114.645 20.2472L114.646 20.2479ZM106.367 18.0051C102.967 18.0051 100.211 15.163 100.211 11.6577C100.211 8.15243 102.967 5.31033 106.367 5.31033C109.767 5.31033 112.524 8.15243 112.524 11.6577C112.524 15.163 109.767 18.0051 106.367 18.0051Z" fill="url(#paint2_linear_44_33163)"/>
<path d="M82.2155 9.93025V2.68604H78.6765V20.5604H82.2155V12.9471H90.7958V20.5604H94.36V2.72463H90.7958V9.96814L82.2155 9.93025Z" fill="url(#paint3_linear_44_33163)"/>
</g>
<defs>
<linearGradient id="paint0_linear_44_33163" x1="116.416" y1="-93.3363" x2="50.793" y2="-60.4804" gradientUnits="userSpaceOnUse">
<stop stop-color="#FFFCE3"/>
<stop offset="1" stop-color="#74A1F8"/>
</linearGradient>
<linearGradient id="paint1_linear_44_33163" x1="116.416" y1="-93.3363" x2="50.793" y2="-60.4804" gradientUnits="userSpaceOnUse">
<stop stop-color="#FFFCE3"/>
<stop offset="1" stop-color="#74A1F8"/>
</linearGradient>
<linearGradient id="paint2_linear_44_33163" x1="116.097" y1="-90.8753" x2="77.1435" y2="-80.7608" gradientUnits="userSpaceOnUse">
<stop stop-color="#FFFCE3"/>
<stop offset="1" stop-color="#74A1F8"/>
</linearGradient>
<linearGradient id="paint3_linear_44_33163" x1="94.36" y1="-74.8441" x2="62.5292" y2="-66.7486" gradientUnits="userSpaceOnUse">
<stop stop-color="#FFFCE3"/>
<stop offset="1" stop-color="#74A1F8"/>
</linearGradient>
<clipPath id="clip0_44_33163">
<rect width="117" height="24" fill="white"/>
</clipPath>
</defs>
</svg>
