<?xml version="1.0" standalone="no"?>
<!DOCTYPE svg PUBLIC "-//W3C//DTD SVG 20010904//EN"
 "http://www.w3.org/TR/2001/REC-SVG-20010904/DTD/svg10.dtd">
<svg version="1.0" xmlns="http://www.w3.org/2000/svg"
 width="16.000000pt" height="16.000000pt" viewBox="0 0 16.000000 16.000000"
 preserveAspectRatio="xMidYMid meet">

<g transform="translate(0.000000,16.000000) scale(0.100000,-0.100000)"
fill="#000000" stroke="none">
<path d="M12 148 c-16 -16 -16 -120 0 -136 16 -16 120 -16 136 0 16 16 16 120
0 136 -16 16 -120 16 -136 0z m28 -68 c0 -27 -4 -50 -10 -50 -11 0 -14 83 -3
93 12 12 13 8 13 -43z m71 14 c-40 -34 -51 -30 -16 6 15 16 32 27 37 24 4 -3
-5 -16 -21 -30z m-46 6 c3 -5 1 -10 -4 -10 -6 0 -11 5 -11 10 0 6 2 10 4 10 3
0 8 -4 11 -10z m75 -41 c0 -11 -4 -17 -10 -14 -5 3 -10 13 -10 21 0 8 5 14 10
14 6 0 10 -9 10 -21z"/>
</g>
</svg>
